<?xml version="1.0" standalone="no"?>
<!DOCTYPE svg PUBLIC "-//W3C//DTD SVG 20010904//EN"
 "http://www.w3.org/TR/2001/REC-SVG-20010904/DTD/svg10.dtd">
<svg version="1.0" xmlns="http://www.w3.org/2000/svg"
 width="452.000000pt" height="452.000000pt" viewBox="0 0 452.000000 452.000000"
 preserveAspectRatio="xMidYMid meet">
<metadata>
Created by potrace 1.11, written by Peter Selinger 2001-2013
</metadata>
<g transform="translate(0.000000,452.000000) scale(0.100000,-0.100000)"
fill="#000000" stroke="none">
<path d="M1075 4186 c-216 -34 -366 -130 -445 -286 -57 -114 -69 -201 -80
-605 -9 -347 -23 -459 -66 -556 -50 -111 -160 -185 -294 -196 l-70 -6 0 -242
0 -242 68 -6 c136 -11 218 -63 285 -178 56 -97 76 -252 77 -599 1 -399 46
-576 179 -704 125 -118 295 -165 599 -166 l152 0 0 234 c0 204 -2 235 -16 240
-9 3 -50 6 -92 6 -93 0 -179 19 -220 48 -63 45 -68 74 -86 437 -17 340 -26
427 -51 530 -35 140 -124 270 -247 361 l-57 41 54 37 c88 61 161 146 205 238
71 149 84 235 100 674 5 149 14 293 20 320 26 117 72 143 270 153 l115 6 3
238 2 237 -162 -1 c-90 -1 -199 -7 -243 -13z"/>
<path d="M3042 3963 l3 -238 120 -6 c166 -8 233 -39 255 -118 5 -20 15 -133
20 -251 24 -509 36 -616 80 -732 42 -112 122 -207 255 -303 l27 -20 -56 -39
c-153 -105 -249 -280 -276 -504 -5 -45 -14 -207 -20 -360 -11 -300 -21 -379
-52 -430 -34 -56 -81 -72 -243 -81 l-110 -6 -3 -237 -2 -238 152 0 c386 0 591
90 698 305 55 110 63 180 80 685 11 305 22 378 73 480 52 105 151 166 292 179
l60 6 3 243 2 242 -47 0 c-103 0 -217 49 -267 114 -41 54 -77 129 -93 193 -9
39 -17 167 -23 393 -12 431 -26 535 -90 665 -99 205 -310 295 -693 295 l-147
0 2 -237z"/>
<path d="M2090 3423 c-253 -25 -410 -84 -513 -192 -116 -122 -162 -291 -122
-446 43 -163 167 -314 480 -585 66 -57 168 -151 226 -210 85 -86 114 -122 144
-183 37 -75 38 -79 33 -162 -12 -180 -120 -323 -323 -426 -27 -13 -30 -20 -30
-59 0 -38 4 -46 28 -60 26 -14 30 -13 100 22 128 66 241 178 302 299 58 113
76 290 41 384 -50 132 -147 244 -420 484 -370 326 -458 443 -457 609 1 157 54
243 191 312 119 60 189 71 483 77 245 5 270 7 292 25 34 27 33 70 -1 97 -25
20 -38 21 -223 19 -108 0 -212 -3 -231 -5z"/>
<path d="M2181 3215 c-94 -17 -158 -50 -198 -104 -29 -37 -33 -50 -33 -101 0
-142 55 -196 510 -501 469 -314 674 -488 776 -662 46 -79 58 -132 51 -230 -12
-157 -112 -297 -265 -373 -82 -41 -101 -67 -80 -112 22 -46 56 -49 129 -12
224 112 353 314 353 550 -1 159 -74 290 -272 482 -139 134 -298 255 -637 483
-364 245 -421 292 -431 357 -5 29 -2 38 20 56 41 32 112 42 299 42 196 0 217
6 217 63 0 69 -25 77 -212 76 -84 0 -186 -7 -227 -14z"/>
</g>
</svg>
